# xmcd
#
# Track frame offsets: 
#        150
#        18236
#        33016
#        52218
#        75920
#        91135
#        112187
#        128103
#        146714
#        165472
#
# Disc length: 2434 seconds
#
# Revision: 0
# Processed by: cddbd v1.5.2PL0 Copyright (c) Steve Scherf et al.
# Submitted via: ExactAudioCopy v0.99pb4
#
DISCID=7709800a
DTITLE=Marcelo Watanabe and Rio Preto All Stars - Black River Blues
DYEAR=1900
DGENRE=Blues
TTITLE0=Rock Me Baby
TTITLE1=Baby Please Don't Go
TTITLE2=Beast of Burden
TTITLE3=Ramblin' on My Mind
TTITLE4=It Hurts Me Too
TTITLE5=Hoochie Coochie Man
TTITLE6=Key to the Highway
TTITLE7=Thrill Is Gone
TTITLE8=Black River Blues
TTITLE9=Georgia on My Mind
EXTD=
EXTT0=
EXTT1=
EXTT2=
EXTT3=
EXTT4=
EXTT5=
EXTT6=
EXTT7=
EXTT8=
EXTT9=
PLAYORDER=
